<svg width="87" height="39" viewBox="0 0 87 39" fill="none" xmlns="http://www.w3.org/2000/svg">
<g clip-path="url(#clip0)">
<path d="M28.4713 12.4506L25.9904 13.1852C24.4935 13.6283 23.5395 13.9447 23.5827 13.9835C23.622 14.0189 24.5788 14.4964 25.7097 15.0459L27.7405 16.6763L33.4009 14.4587C33.4009 14.435 32.8578 14.2011 32.1992 13.9401C31.5405 13.6791 30.4316 13.2386 29.7355 12.9592L28.4713 12.4507V12.4506Z" fill="black"/>
<path d="M19.0373 2.9586C18.9943 2.96372 18.9514 2.97751 18.9102 2.99018L0.152469 9.22671C0.114771 9.29247 0.0646921 9.57484 0.0317339 9.64376C0.0177119 9.68868 0.016079 9.71546 0.0126131 9.73852C0.00550041 9.78457 0.000201282 9.809 0 9.82701V9.89017C0.00201282 9.91521 0.00467036 9.92266 0.00631002 9.93442C0.00914833 9.95791 0.0156619 9.97948 0.0189232 10.0039C0.0258323 10.0528 0.037417 10.113 0.0507027 10.1935L3.32946 28.4162C3.35782 28.5693 3.44336 28.7156 3.56455 28.8142L3.76788 28.9785C7.59609 31.9398 11.129 35.106 14.9637 38.0901C15.0185 38.1326 15.0594 38.1698 15.0971 38.1975C15.1158 38.2115 15.1304 38.2195 15.1543 38.2354C15.1661 38.2434 15.1765 38.257 15.2052 38.2733C15.2194 38.2813 15.2438 38.2885 15.2814 38.3049C15.318 38.3207 15.3424 38.3612 15.5546 38.3555V38.3617H15.5672V38.3555C15.5835 38.353 15.7534 38.3332 15.8278 38.2986C15.9058 38.2625 15.9618 38.2143 16.0057 38.1722L33.7717 28.4677C33.9204 28.2756 33.8899 28.2407 33.8988 28.2023C33.9079 28.164 33.9089 28.1455 33.9114 28.1265C33.9163 28.0886 33.9158 28.0611 33.9177 28.0317C33.9218 27.9729 33.922 27.9101 33.924 27.8295L33.4669 14.9899L33.4411 14.4463L33.0764 14.5161L27.7513 16.5875C27.6779 16.2988 27.668 16.2564 27.7408 16.1194L30.0846 13.1707C30.0683 13.1293 32.1502 12.1396 32.1365 12.097C31.9454 11.5065 32.7263 11.5499 32.7167 10.9079L32.2451 7.39378L19.2963 2.98345C19.211 2.95806 19.1244 2.95492 19.0358 2.96433V2.9581L19.0373 2.9586Z" fill="black"/>
<path d="M19.1072 0.00224872C19.0855 0.00345578 19.0641 0.00764692 19.0436 0.0147025L15.1295 1.44845C15.0898 1.46257 15.0547 1.48706 15.0279 1.51934C15.001 1.55162 14.9834 1.5905 14.9769 1.63188C14.9704 1.67327 14.9753 1.71563 14.9909 1.75452C15.0066 1.7934 15.0325 1.82737 15.0659 1.85285L17.7156 3.95062C17.7458 3.97399 17.7812 3.98966 17.8189 3.99628C17.8565 4.00289 17.8953 4.00024 17.9316 3.98856L21.7759 2.74373C21.816 2.73195 21.8523 2.70969 21.8809 2.67928C21.9094 2.64886 21.9293 2.61139 21.9384 2.57076C21.9474 2.53013 21.9454 2.48783 21.9325 2.44824C21.9196 2.40865 21.8962 2.37323 21.8649 2.34565L19.2851 0.0572748C19.2609 0.0361687 19.2327 0.0202297 19.202 0.0104471C19.1714 0.00066452 19.1391 -0.00275208 19.1071 0.000411032L19.1072 0.00224872Z" fill="black"/>
<path d="M9.18944 6.68633L9.54838 10.5395L5.72729 7.97896L5.99121 4.40414L9.18934 6.68645L9.18944 6.68633Z" fill="black"/>
<path d="M15.6765 4.34738L9.18921 6.68602L9.54815 10.5392L16.0416 8.20141L15.6765 4.34738H15.6765Z" fill="black"/>
<path d="M16.1333 9.56508L16.4832 13.2917L11.9066 12.1489L11.5601 8.4191L16.1332 9.56497L16.1333 9.56508Z" fill="black"/>
<path d="M16.1335 9.56507L16.4835 13.2917L21.1738 10.1973L20.8246 6.46649L16.1335 9.56507H16.1336H16.1335Z" fill="black"/>
<path d="M14.9971 1.69577L17.8692 3.76565L18.1945 7.12872L14.4065 4.70057L14.9972 1.69577H14.9971Z" fill="black"/>
<path d="M17.8691 3.76598L18.1943 7.12905L20.8163 5.68214L21.9167 2.509L17.8692 3.76598H17.8691Z" fill="black"/>
<path d="M22.589 2.91472C22.5717 2.91716 22.5546 2.92141 22.5382 2.92739L18.4843 4.4059C18.4406 4.42175 18.4023 4.44938 18.3735 4.48568C18.3447 4.52199 18.3267 4.56554 18.3214 4.61145C18.3162 4.65737 18.3238 4.70384 18.3436 4.74566C18.3634 4.78748 18.3945 4.823 18.4334 4.84824L21.8646 7.11671C21.8992 7.13883 21.9388 7.15213 21.9798 7.15542C22.0208 7.15872 22.062 7.15192 22.0997 7.13561L26.6366 5.30322C26.6797 5.28411 26.7164 5.25329 26.7427 5.2143C26.7689 5.17531 26.7835 5.12975 26.7848 5.08286C26.7861 5.03597 26.7741 4.98967 26.7501 4.94928C26.7261 4.9089 26.6911 4.87608 26.6492 4.8546L22.7351 2.94001C22.69 2.9171 22.6391 2.90829 22.5889 2.91475L22.589 2.91472Z" fill="black"/>
<path d="M12.9691 2.953C12.954 2.95522 12.9393 2.95611 12.9246 2.95922L6.22745 4.10285C5.99474 4.14395 5.90338 4.49908 6.08764 4.64628L8.99786 6.92735C9.07992 6.99329 9.19711 7.01312 9.29649 6.9779L15.7396 5.3224C15.856 5.27932 15.9399 5.16066 15.9413 5.03705C15.9433 4.91347 15.8614 4.79302 15.7459 4.74741L13.0897 2.97743C13.0517 2.96098 13.0104 2.95244 12.969 2.95215L12.969 2.95219L12.9691 2.953Z" fill="black"/>
<path d="M26.5409 5.07382L26.8643 8.55733L22.3278 10.3876L22.0046 6.9088L26.5408 5.07394L26.5409 5.07382Z" fill="black"/>
<path d="M27.3608 4.10895C27.3227 4.11031 27.2856 4.12118 27.2528 4.14055L23.0909 6.6617C23.051 6.6848 23.0192 6.71941 22.9996 6.76094C22.98 6.80247 22.9735 6.84895 22.9811 6.8942C22.9887 6.93946 23.01 6.98134 23.0421 7.0143C23.0741 7.04726 23.1156 7.06973 23.1608 7.07872L27.4943 8.03918C27.5506 8.05192 27.6096 8.04288 27.6595 8.01389L32.5013 5.27155C32.5413 5.24758 32.5729 5.21194 32.5918 5.16948C32.6107 5.12702 32.616 5.0798 32.607 5.03423C32.598 4.98867 32.5751 4.94698 32.5414 4.91482C32.5077 4.88266 32.4649 4.8616 32.4187 4.8545L27.4053 4.11524C27.3907 4.11171 27.3758 4.10962 27.3608 4.10901L27.3608 4.10895Z" fill="black"/>
<path d="M27.543 7.81538L32.3987 4.995C32.4737 5.00367 32.5311 4.92212 32.5902 5.02875L32.7395 11.5839C32.7445 11.8194 32.7626 11.9791 32.4882 12.1008L28.1233 14.8829L27.5432 7.81533L27.543 7.81538Z" fill="black"/>
<path d="M0.672848 9.83835C0.663903 9.85036 0.905499 11.2332 1.2083 12.9129C1.68453 15.5542 1.77564 15.9828 1.89013 16.0712C2.04633 16.1918 4.85972 17.6216 4.93085 17.6166C4.95779 17.6144 4.76477 16.2397 4.50364 14.5624C4.2425 12.8851 4.01108 11.4742 3.98858 11.4272C3.94983 11.346 0.707677 9.79247 0.672961 9.83846L0.672848 9.83835Z" fill="#035AA6"/>
<path d="M4.52123 11.614L4.53668 11.8477C4.54522 11.9758 4.76502 13.395 5.02545 15.0023L5.49882 17.9253L7.27576 18.8241C8.25306 19.3187 9.05609 19.7184 9.06016 19.7129C9.06423 19.7076 8.88666 18.2795 8.66484 16.5384L8.26168 13.3717L6.39134 12.4928L4.521 11.614L4.52123 11.614Z" fill="#035AA6"/>
<path d="M8.72144 13.5942L9.15069 16.755C9.47256 19.1285 9.60379 19.9364 9.67703 20C9.79549 20.1028 13.4356 21.9581 13.5108 21.9538C13.5401 21.9516 13.3981 20.796 13.1957 19.3846C12.993 17.9734 12.8047 16.5102 12.7759 16.1335L12.7245 15.4483L12.528 15.405C12.4206 15.3809 11.6119 15.0058 10.7314 14.5713C9.85084 14.1368 9.04005 13.7389 8.92754 13.6875L8.72158 13.5942H8.72144Z" fill="#035AA6"/>
<path d="M1.94479 16.7159C1.90225 16.7723 2.82489 22.0011 2.93016 22.3003C2.99305 22.479 3.27487 22.6874 4.50265 23.4597L5.99904 24.4005L5.87734 23.427C5.81008 22.8918 5.59461 21.5031 5.39831 20.3401L5.04081 18.2245L3.50971 17.4466C2.6676 17.019 1.96379 16.6909 1.94491 16.7158L1.94479 16.7159Z" fill="#035AA6"/>
<path d="M5.59757 18.5331C5.59086 18.5477 5.80057 19.9471 6.06615 21.6415C6.43724 24.0204 6.56949 24.7389 6.64923 24.7983C6.70605 24.8406 7.48672 25.3377 8.38388 25.9013L10.0154 26.9254L9.84249 25.4092C9.74737 24.5756 9.55768 23.086 9.42116 22.1003L9.17312 20.3099L7.39121 19.4073C6.41121 18.9113 5.60432 18.5183 5.59765 18.5331L5.59757 18.5331Z" fill="#035AA6"/>
<path d="M9.67489 20.5786C9.65721 20.581 9.86164 22.099 10.1301 23.9516L10.6182 27.3201L12.5613 28.5338L14.5043 29.7475L14.4188 28.8401C14.3722 28.3408 14.1632 26.7181 13.9544 25.2327L13.5757 22.5323L11.6418 21.5533C10.5777 21.0152 9.69257 20.5766 9.67505 20.5791L9.67489 20.5786Z" fill="#035AA6"/>
<path d="M3.09198 23.2279C3.08914 23.2279 3.08954 23.231 3.08974 23.2328C3.08773 23.287 3.28825 24.4503 3.53685 25.8167L3.98959 28.2995L4.19269 28.4666C4.30426 28.5579 4.97602 29.1076 5.68681 29.6883L6.98 30.7426L6.81264 29.4215C6.72063 28.6941 6.52621 27.4067 6.37755 26.5621L6.1078 25.0262L4.60169 24.0801C3.75154 23.5466 3.1312 23.1972 3.09117 23.2281L3.09198 23.2279Z" fill="#035AA6"/>
<path d="M6.71655 25.4094L6.88299 26.724C6.97451 27.4479 7.17302 28.7637 7.32715 29.6467L7.60695 31.2524L9.28076 32.6178L10.9567 33.9829L10.8693 33.0624C10.8215 32.556 10.6386 31.114 10.4627 29.8561L10.1432 27.568L8.42996 26.4888L6.71668 25.4095L6.71655 25.4094Z" fill="#035AA6"/>
<path d="M10.6877 27.9272C10.6526 27.9194 10.835 29.3904 11.0943 31.1959L11.5657 34.4798L13.5341 36.0884C14.6168 36.9735 15.5218 37.6964 15.5448 37.6955C15.5679 37.6955 15.431 36.461 15.2407 34.9533C15.0505 33.4442 14.8355 31.8001 14.7629 31.2975L14.6289 30.3832L12.6894 29.1632C11.6224 28.4917 10.7221 27.9349 10.6872 27.9268L10.6877 27.9272Z" fill="#035AA6"/>
<path d="M19.123 0.238403L15.2139 1.66878L17.8619 3.76486L21.7084 2.52453L19.123 0.238403Z" fill="#F2CB05"/>
<path d="M6.40864 7.6062L3.96362 8.36969C2.61876 8.79022 1.50379 9.15283 1.4866 9.17558C1.46952 9.19822 1.50633 9.23863 1.56871 9.26413C1.63116 9.28957 2.27193 9.59594 2.99182 9.94375C3.71163 10.2916 4.3481 10.57 4.40634 10.5645C4.46468 10.5591 5.58622 10.1738 6.8984 9.70748C8.21069 9.24114 9.30496 8.8377 9.32871 8.81026C9.35244 8.78277 8.70524 8.49901 7.89067 8.18175L6.40865 7.6062H6.40864Z" fill="#F2CB05"/>
<path d="M15.0864 10.9865L12.438 12.0483C10.9804 12.6324 9.79032 13.1285 9.79518 13.1493C9.808 13.2059 13.0566 14.7545 13.1384 14.7431C13.177 14.7376 14.5072 14.2443 16.0932 13.6468C17.6791 13.0492 18.9843 12.549 18.9943 12.5357C19.0043 12.5226 18.1293 12.1691 17.05 11.7497L15.0866 10.9865L15.0864 10.9865Z" fill="#F2CB05"/>
<path d="M9.97077 9.10402C9.89291 9.13389 8.7702 9.5341 7.47657 9.99253C6.18293 10.4509 5.09375 10.8396 5.05722 10.857C5.0207 10.8746 5.92473 11.3341 7.06416 11.8768L9.13568 12.8629L11.1704 12.0486C12.2904 11.6011 13.4746 11.1289 13.8004 10.9983C14.1263 10.8677 14.3644 10.7409 14.3308 10.7159C14.2973 10.6909 13.3343 10.3053 12.1906 9.8598C10.7718 9.30713 10.0673 9.0668 9.9707 9.10401L9.97077 9.10402Z" fill="#F2CB05"/>
<path d="M16.182 5.86996L11.5586 8.41911L16.1308 9.56206L20.8239 6.46707L16.182 5.86993V5.86996Z" fill="#F2CB05"/>
<path d="M22.6276 3.16101L18.5725 4.64087L22.0039 6.90788L26.5407 5.07493L22.6276 3.16101V3.16101Z" fill="#F2CB05"/>
<path d="M12.9758 3.26559L6.28052 4.40348L9.18825 6.68658L15.6538 5.2083L12.9758 3.26571V3.26559Z" fill="#F2CB05"/>
<path d="M27.3743 4.33611L23.2092 6.85647L27.5438 7.81479L32.386 5.07683L27.3742 4.33603L27.3743 4.33611Z" fill="#F2CB05"/>
<path d="M22.0851 8.19431L18.9507 9.44308C17.2268 10.1301 15.8191 10.711 15.8223 10.7333C15.8255 10.7556 16.7044 11.1129 17.7747 11.5293L19.7193 12.2863L22.9763 11.0646C24.7667 10.3919 26.2421 9.82587 26.2551 9.80867C26.2682 9.79132 25.3354 9.42096 24.1824 8.98526L22.0851 8.1936V8.19431Z" fill="#F2CB05"/>
<path d="M26.767 10.4152C26.34 10.5213 20.2776 12.7959 20.2027 12.8812C20.1802 12.9072 20.2779 13.9847 20.4213 15.2771C20.5647 16.5695 20.7176 18.0146 20.7614 18.4885C20.805 18.9623 20.8689 19.3449 20.9014 19.3392C20.9342 19.3345 22.3699 18.7501 24.0916 18.0424C25.8131 17.3347 27.2337 16.7392 27.2489 16.7191C27.2966 16.6558 26.8464 10.4531 26.7911 10.4118C26.7878 10.4094 26.7805 10.4096 26.767 10.4152L26.767 10.4152Z" fill="#D9043D"/>
<path d="M19.6231 13.1107C19.2962 13.1543 13.3767 15.4571 13.3102 15.5655C13.2545 15.6563 13.3441 16.4257 13.6967 18.8815C13.9493 20.6407 14.1798 22.0773 14.2087 22.0729C14.2376 22.0689 15.6261 21.5057 17.2956 20.8219C18.9651 20.1381 20.3532 19.5479 20.3785 19.5114C20.4039 19.4748 20.2771 18.1671 20.0979 16.6055C19.9187 15.0439 19.7672 13.6147 19.7606 13.4295C19.7502 13.1403 19.7308 13.0959 19.623 13.1106L19.6231 13.1107Z" fill="#D9043D"/>
<path d="M33.0215 14.9133C32.9392 14.925 27.8078 17.0083 27.779 17.0425C27.7635 17.061 28.2097 23.6571 28.2417 23.8835C28.2523 23.9575 28.296 23.9943 28.3436 23.9692C28.3894 23.945 29.4641 23.4794 30.7319 22.9354C31.9997 22.3915 33.0737 21.915 33.1189 21.8774C33.1745 21.8312 33.1855 20.7606 33.1502 18.5866C33.1215 16.8147 33.098 15.2614 33.1001 15.1338C33.1025 14.9817 33.0761 14.9061 33.0214 14.9134L33.0215 14.9133Z" fill="#D9043D"/>
<path d="M27.2885 17.2365L24.1356 18.528C22.4012 19.2384 20.9688 19.8353 20.9542 19.8547C20.9249 19.8935 21.4969 25.27 21.632 26.2286L21.7154 26.8291L24.7197 25.532C26.3723 24.8182 27.7405 24.2129 27.7598 24.1875C27.7936 24.1426 27.3927 18.0057 27.3224 17.4922L27.2885 17.2365H27.2885Z" fill="#D9043D"/>
<path d="M20.4471 20.0826C20.4146 20.0584 14.2844 22.5385 14.2576 22.5868C14.2532 22.5946 14.4552 24.1889 14.7056 26.1279C15.1547 29.6057 15.1606 29.6527 15.2912 29.5982C15.3639 29.5676 16.7294 28.9783 18.3252 28.2902L21.2264 27.0389L21.1641 26.293C21.0529 24.9981 20.4886 20.1136 20.4471 20.0827L20.4471 20.0826Z" fill="#D9043D"/>
<path d="M33.0735 22.4936C32.8514 22.5408 32.2432 22.7942 30.7256 23.4503C29.3907 24.0275 28.2948 24.505 28.29 24.5131C28.2851 24.5209 28.3637 25.7023 28.4653 27.1377C28.567 28.5731 28.6564 29.9358 28.6651 30.1664C28.6799 30.5577 28.6896 30.5821 28.807 30.5158C28.8762 30.4767 29.8903 29.9234 31.0599 29.2875C32.2296 28.6515 33.2109 28.0998 33.2413 28.0604C33.299 27.9859 33.2456 22.6975 33.1854 22.5087C33.1783 22.4864 33.1475 22.4777 33.0735 22.4936L33.0735 22.4936Z" fill="#D9043D"/>
<path d="M27.7952 24.7437C27.7471 24.7261 21.8036 27.2887 21.7671 27.3429C21.7533 27.3631 21.8846 28.626 22.0581 30.1492C22.2315 31.6725 22.388 33.1491 22.4061 33.4307C22.4242 33.7122 22.4566 33.94 22.4788 33.9369C22.5012 33.9335 23.8047 33.2312 25.3759 32.3766L28.2316 30.8246L28.2373 30.5989C28.2448 30.1721 27.8359 24.7587 27.7952 24.7436L27.7952 24.7437Z" fill="#D9043D"/>
<path d="M21.2838 27.5651C21.2573 27.5453 19.469 28.3054 15.3587 30.0851C15.2482 30.133 15.2739 30.3681 15.7567 33.7312C16.0418 35.7167 16.2991 37.31 16.3307 37.2923C16.3622 37.275 17.6632 36.5681 19.2219 35.7218L22.0551 34.1841L21.9971 33.7604C21.9637 33.5276 21.7971 32.0444 21.6268 30.4633C21.4565 28.8823 21.3026 27.5778 21.2844 27.5643L21.2838 27.5651Z" fill="#D9043D"/>
<path d="M32.4132 5.65967L27.6411 8.41786L28.1252 14.556L32.4979 11.7766L32.4132 5.65967H32.4132Z" fill="#D9043D"/>
</g>
<path d="M40.9119 13.3492L41.8905 15.2921H42.9655V15.2457L41.8476 13.0992C41.9905 13.0349 42.119 12.9587 42.2333 12.8706C42.35 12.7825 42.45 12.6789 42.5333 12.5599C42.6143 12.4432 42.6762 12.3111 42.719 12.1635C42.7643 12.0135 42.7869 11.8456 42.7869 11.6599C42.7869 11.4027 42.7417 11.1765 42.6512 10.9813C42.5631 10.7861 42.4369 10.623 42.2726 10.492C42.1059 10.3611 41.9059 10.2622 41.6726 10.1956C41.4393 10.1265 41.1785 10.092 40.8904 10.092H39.1476V15.2921H40.1511V13.3492H40.9119ZM40.1511 12.5349V10.9063H40.8904C41.0285 10.9063 41.1512 10.923 41.2583 10.9563C41.3654 10.9896 41.4559 11.0373 41.5297 11.0992C41.6131 11.1682 41.675 11.2563 41.7154 11.3635C41.7583 11.4682 41.7797 11.5896 41.7797 11.7277C41.7797 11.842 41.7631 11.9456 41.7297 12.0385C41.6988 12.1313 41.6524 12.2111 41.5904 12.2778C41.5166 12.3611 41.4202 12.4254 41.3012 12.4706C41.1845 12.5135 41.0488 12.5349 40.894 12.5349H40.1511ZM47.8094 10.092H46.813L46.8094 13.5385C46.807 13.7075 46.7891 13.8563 46.7558 13.9849C46.7225 14.1135 46.6725 14.2206 46.6058 14.3064C46.5439 14.3897 46.4653 14.4528 46.3701 14.4956C46.2772 14.5361 46.1701 14.5564 46.0487 14.5564C45.9368 14.5564 45.8379 14.5373 45.7522 14.4992C45.6665 14.4587 45.5939 14.3992 45.5344 14.3206C45.4701 14.2349 45.4213 14.1266 45.3879 13.9956C45.357 13.8647 45.3403 13.7123 45.3379 13.5385L45.3344 10.092H44.3308L44.3272 13.5385C44.3272 13.829 44.3677 14.0885 44.4486 14.3171C44.532 14.5433 44.6486 14.7337 44.7986 14.8885C44.9486 15.0433 45.1284 15.1611 45.3379 15.2421C45.5498 15.323 45.7867 15.3635 46.0487 15.3635C46.3272 15.3635 46.5749 15.323 46.7915 15.2421C47.0106 15.1611 47.1963 15.0421 47.3487 14.8849C47.4987 14.7302 47.613 14.5397 47.6915 14.3135C47.7725 14.0873 47.813 13.829 47.813 13.5385L47.8094 10.092ZM49.5354 15.2921H51.4319C51.7176 15.2921 51.9747 15.2599 52.2033 15.1957C52.4319 15.1314 52.626 15.0349 52.7855 14.9064C52.945 14.7778 53.0676 14.6183 53.1533 14.4278C53.2391 14.2373 53.2819 14.0171 53.2819 13.7671C53.2819 13.6361 53.2641 13.5099 53.2283 13.3885C53.195 13.2647 53.1426 13.1504 53.0712 13.0456C53.0021 12.948 52.9164 12.8623 52.814 12.7885C52.714 12.7147 52.5783 12.6539 52.4069 12.6063V12.6028C52.495 12.5694 52.5748 12.5289 52.6462 12.4813C52.72 12.4337 52.7855 12.3813 52.8426 12.3242C52.9474 12.2194 53.026 12.098 53.0783 11.9599C53.1331 11.8194 53.1617 11.6706 53.1641 11.5135C53.1641 11.2706 53.1188 11.0599 53.0283 10.8813C52.9402 10.7027 52.814 10.5551 52.6498 10.4384C52.4855 10.3218 52.2867 10.2349 52.0533 10.1777C51.8224 10.1206 51.5652 10.092 51.2819 10.092H49.5354V15.2921ZM50.5426 12.9992H51.4783C51.6188 13.0016 51.7402 13.0206 51.8426 13.0563C51.945 13.092 52.0283 13.1432 52.0926 13.2099C52.1569 13.2742 52.2033 13.3528 52.2319 13.4456C52.2628 13.5385 52.2783 13.6432 52.2783 13.7599C52.2783 13.8718 52.2581 13.973 52.2176 14.0635C52.1795 14.154 52.1224 14.2314 52.0462 14.2956C51.9771 14.3528 51.8902 14.398 51.7855 14.4314C51.6831 14.4647 51.5664 14.4814 51.4355 14.4814H50.5426V12.9992ZM50.5426 12.2742V10.9099H51.2855C51.4474 10.9123 51.5878 10.9301 51.7069 10.9634C51.8283 10.9968 51.9247 11.0504 51.9962 11.1242C52.0509 11.1765 52.0914 11.242 52.1176 11.3206C52.1462 11.3992 52.1605 11.4908 52.1605 11.5956C52.1605 11.6956 52.1438 11.7849 52.1105 11.8635C52.0795 11.942 52.0343 12.0087 51.9747 12.0635C51.9033 12.1325 51.8093 12.1849 51.6926 12.2206C51.5759 12.2539 51.4414 12.2718 51.289 12.2742H50.5426ZM54.9615 10.092V10.9027H55.9508V14.4849H54.9615V15.2921H57.9687V14.4849H56.9544V10.9027H57.9687V10.092H54.9615ZM61.4876 13.1563L62.7733 15.2921H63.9662L62.1519 12.392L63.9019 10.092H62.6733L61.409 11.8385L60.9376 12.4742V10.092H59.9304V15.2921H60.9376V13.7599L61.4876 13.1563ZM67.4387 10.3384V9.72057H66.6423V10.3384C66.6423 10.5694 66.6125 10.7742 66.553 10.9527C66.4958 11.1313 66.422 11.298 66.3315 11.4527L66.7851 11.7349C66.878 11.6516 66.9637 11.5551 67.0423 11.4456C67.1208 11.3337 67.1899 11.2158 67.2494 11.092C67.3089 10.9706 67.3554 10.8456 67.3887 10.717C67.422 10.5861 67.4387 10.4599 67.4387 10.3384ZM73.0326 13.9349C73.0326 14.0278 73.0136 14.1135 72.9755 14.1921C72.9374 14.2683 72.8826 14.3337 72.8112 14.3885C72.7398 14.4433 72.6517 14.4861 72.5469 14.5171C72.4445 14.548 72.3267 14.5635 72.1933 14.5635C72.0433 14.5635 71.9052 14.5468 71.7791 14.5135C71.6552 14.4802 71.5493 14.4278 71.4612 14.3564C71.3707 14.2849 71.3005 14.1933 71.2505 14.0814C71.2005 13.9694 71.1731 13.8349 71.1683 13.6778H70.1826C70.1826 13.9468 70.2338 14.1814 70.3362 14.3814C70.4409 14.5814 70.5826 14.7552 70.7612 14.9028C70.9493 15.0528 71.1695 15.1671 71.4219 15.2457C71.6767 15.3218 71.9338 15.3599 72.1933 15.3599C72.4576 15.3599 72.7017 15.329 72.9255 15.2671C73.1493 15.2028 73.3422 15.1087 73.5041 14.9849C73.666 14.8635 73.7922 14.7147 73.8827 14.5385C73.9755 14.3599 74.0219 14.1564 74.0219 13.9278C74.0219 13.6635 73.9612 13.4302 73.8398 13.2278C73.7184 13.0254 73.5553 12.848 73.3505 12.6956C73.2148 12.6028 73.066 12.5206 72.9041 12.4492C72.7422 12.3778 72.5719 12.317 72.3933 12.267C72.2267 12.2218 72.0767 12.173 71.9433 12.1206C71.8124 12.0682 71.7005 12.0099 71.6076 11.9456C71.5148 11.8837 71.4433 11.8135 71.3933 11.7349C71.3457 11.6563 71.3219 11.5682 71.3219 11.4706C71.3219 11.3777 71.3398 11.292 71.3755 11.2134C71.4136 11.1325 71.4683 11.0623 71.5398 11.0027C71.6112 10.9456 71.6981 10.9015 71.8005 10.8706C71.9052 10.8373 72.0243 10.8206 72.1576 10.8206C72.3029 10.8206 72.4291 10.8408 72.5362 10.8813C72.6457 10.9194 72.7374 10.973 72.8112 11.042C72.8826 11.1134 72.9362 11.198 72.9719 11.2956C73.01 11.3932 73.0315 11.5004 73.0362 11.617H74.0148C74.0148 11.3837 73.9696 11.1694 73.8791 10.9742C73.7886 10.7789 73.6624 10.6099 73.5005 10.467C73.3386 10.3265 73.1446 10.217 72.9184 10.1384C72.6945 10.0599 72.4469 10.0206 72.1755 10.0206C71.9136 10.0206 71.6707 10.0551 71.4469 10.1241C71.2231 10.1908 71.029 10.2872 70.8648 10.4134C70.7005 10.5396 70.5719 10.692 70.479 10.8706C70.3862 11.0492 70.3397 11.248 70.3397 11.467C70.3397 11.6575 70.3743 11.8337 70.4433 11.9956C70.5147 12.1575 70.6195 12.3051 70.7576 12.4385C70.8957 12.5718 71.0731 12.6944 71.2898 12.8063C71.5088 12.9182 71.7624 13.0135 72.0505 13.092C72.2362 13.1421 72.391 13.1968 72.5148 13.2563C72.641 13.3135 72.7434 13.3766 72.8219 13.4456C72.8981 13.5171 72.9517 13.5932 72.9826 13.6742C73.016 13.7552 73.0326 13.8421 73.0326 13.9349ZM42.7583 23.6635H41.7547C41.7452 23.8206 41.719 23.9552 41.6762 24.0671C41.6333 24.179 41.575 24.2706 41.5012 24.3421C41.4273 24.4135 41.3381 24.4659 41.2333 24.4992C41.1285 24.5325 41.0107 24.5492 40.8797 24.5492C40.7821 24.5492 40.6928 24.5385 40.6119 24.5171C40.5333 24.4933 40.4619 24.4575 40.3976 24.4099C40.338 24.3671 40.2845 24.3135 40.2369 24.2492C40.1916 24.1849 40.1523 24.1111 40.119 24.0278C40.0714 23.9063 40.0357 23.7647 40.0119 23.6028C39.9904 23.4385 39.9797 23.2528 39.9797 23.0456V22.3385C39.9797 22.1861 39.9869 22.0444 40.0011 21.9135C40.0154 21.7801 40.038 21.6587 40.069 21.5492C40.1095 21.4087 40.163 21.2861 40.2297 21.1813C40.2988 21.0742 40.3821 20.992 40.4797 20.9349C40.5369 20.9015 40.5988 20.8765 40.6654 20.8599C40.7345 20.8432 40.8083 20.8349 40.8869 20.8349C41.0345 20.8349 41.1607 20.8551 41.2654 20.8956C41.3726 20.9337 41.4619 20.9908 41.5333 21.067C41.6024 21.1456 41.6547 21.2432 41.6904 21.3599C41.7285 21.4765 41.7524 21.6123 41.7619 21.767H42.7619C42.7381 21.4956 42.6809 21.2515 42.5905 21.0349C42.5 20.8182 42.3762 20.6349 42.219 20.4849C42.0619 20.3349 41.8714 20.2194 41.6476 20.1384C41.4262 20.0575 41.1726 20.017 40.8869 20.017C40.694 20.017 40.513 20.042 40.344 20.092C40.1773 20.1396 40.0238 20.2087 39.8833 20.2991C39.7261 20.4063 39.5857 20.5372 39.4618 20.692C39.338 20.8468 39.238 21.023 39.1618 21.2206C39.0952 21.3825 39.0452 21.5587 39.0118 21.7492C38.9785 21.9373 38.9618 22.1361 38.9618 22.3456V23.0456C38.9618 23.2694 38.9797 23.4813 39.0154 23.6813C39.0535 23.8813 39.1071 24.0647 39.1761 24.2314C39.2476 24.398 39.3345 24.5504 39.4368 24.6885C39.5416 24.8266 39.6607 24.9445 39.794 25.0421C39.9392 25.1468 40.1023 25.2278 40.2833 25.2849C40.4666 25.3397 40.6654 25.3671 40.8797 25.3671C41.1512 25.3671 41.3988 25.3278 41.6226 25.2492C41.8464 25.1683 42.0393 25.054 42.2012 24.9064C42.3631 24.7587 42.4917 24.5802 42.5869 24.3706C42.6845 24.1611 42.7417 23.9254 42.7583 23.6635ZM47.9737 23.0742V22.317C47.9737 22.0813 47.9511 21.8587 47.9058 21.6492C47.863 21.4396 47.7999 21.2468 47.7165 21.0706C47.6403 20.9158 47.5487 20.7742 47.4415 20.6456C47.3368 20.517 47.2142 20.4075 47.0737 20.317C46.9332 20.2218 46.7749 20.1491 46.5987 20.0991C46.4249 20.0468 46.2379 20.0206 46.0379 20.0206C45.8403 20.0206 45.657 20.0456 45.4879 20.0956C45.3189 20.1456 45.1665 20.217 45.0308 20.3099C44.8927 20.4051 44.7701 20.5194 44.6629 20.6527C44.5582 20.7861 44.4689 20.9349 44.3951 21.0992C44.3189 21.273 44.2605 21.4623 44.2201 21.667C44.182 21.8718 44.1629 22.0885 44.1629 22.317V23.0742C44.1629 23.2885 44.1796 23.4921 44.2129 23.6849C44.2486 23.8778 44.2998 24.0564 44.3665 24.2206C44.4403 24.3992 44.532 24.5599 44.6415 24.7028C44.751 24.8433 44.8748 24.9635 45.0129 25.0635C45.1534 25.1587 45.3094 25.2326 45.4808 25.2849C45.6522 25.3373 45.8391 25.3635 46.0415 25.3635C46.232 25.3635 46.4094 25.3397 46.5737 25.2921C46.7403 25.2468 46.8927 25.1826 47.0308 25.0992C47.1832 25.004 47.3189 24.8849 47.438 24.7421C47.557 24.5992 47.657 24.4421 47.738 24.2706C47.8142 24.0992 47.8725 23.9135 47.913 23.7135C47.9534 23.5111 47.9737 23.298 47.9737 23.0742ZM46.9558 22.3099V23.0742C46.9558 23.2028 46.9487 23.3266 46.9344 23.4456C46.9225 23.5647 46.9034 23.6742 46.8772 23.7742C46.8439 23.9028 46.7987 24.0183 46.7415 24.1206C46.6868 24.2206 46.6189 24.304 46.538 24.3706C46.4737 24.4254 46.3999 24.4671 46.3165 24.4956C46.2332 24.5242 46.1415 24.5385 46.0415 24.5385C45.9368 24.5385 45.8427 24.523 45.7594 24.4921C45.6784 24.4611 45.6058 24.4171 45.5415 24.3599C45.4725 24.2956 45.4117 24.2123 45.3594 24.1099C45.3094 24.0052 45.2713 23.8897 45.2451 23.7635C45.2213 23.6635 45.2046 23.5552 45.1951 23.4385C45.1855 23.3218 45.1808 23.2004 45.1808 23.0742V22.3099C45.1808 22.1766 45.1855 22.0492 45.1951 21.9277C45.207 21.8063 45.2248 21.6944 45.2486 21.592C45.2796 21.4587 45.3225 21.342 45.3772 21.242C45.4344 21.142 45.5034 21.0587 45.5844 20.992C45.6439 20.9468 45.7106 20.9123 45.7844 20.8884C45.8606 20.8646 45.9451 20.8527 46.0379 20.8527C46.1356 20.8527 46.2237 20.8658 46.3022 20.892C46.3832 20.9182 46.4558 20.9551 46.5201 21.0027C46.601 21.067 46.6713 21.1504 46.7308 21.2527C46.7903 21.3527 46.838 21.467 46.8737 21.5956C46.9022 21.698 46.9225 21.8099 46.9344 21.9313C46.9487 22.0504 46.9558 22.1766 46.9558 22.3099ZM50.7747 20.092H49.5283V25.2921H50.4497V23.7528L50.4069 21.417L51.0176 23.5778H51.514L52.1962 21.3206L52.1533 23.7528V25.2921H53.0748V20.092H51.8283L51.2676 22.0456L50.7747 20.092ZM55.9722 20.092H54.7258V25.2921H55.6472V23.7528L55.6044 21.417L56.2151 23.5778H56.7115L57.3937 21.3206L57.3508 23.7528V25.2921H58.2723V20.092H57.0258L56.4651 22.0456L55.9722 20.092ZM63.4019 20.092H62.4055L62.4019 23.5385C62.3995 23.7075 62.3817 23.8563 62.3483 23.9849C62.315 24.1135 62.265 24.2206 62.1983 24.3064C62.1364 24.3897 62.0579 24.4528 61.9626 24.4956C61.8698 24.5361 61.7626 24.5564 61.6412 24.5564C61.5293 24.5564 61.4305 24.5373 61.3448 24.4992C61.259 24.4587 61.1864 24.3992 61.1269 24.3206C61.0626 24.2349 61.0138 24.1266 60.9805 23.9956C60.9495 23.8647 60.9328 23.7123 60.9305 23.5385L60.9269 20.092H59.9233L59.9197 23.5385C59.9197 23.829 59.9602 24.0885 60.0412 24.3171C60.1245 24.5433 60.2412 24.7337 60.3912 24.8885C60.5412 25.0433 60.7209 25.1611 60.9305 25.2421C61.1424 25.323 61.3793 25.3635 61.6412 25.3635C61.9198 25.3635 62.1674 25.323 62.3841 25.2421C62.6031 25.1611 62.7888 25.0421 62.9412 24.8849C63.0912 24.7302 63.2055 24.5397 63.2841 24.3135C63.365 24.0873 63.4055 23.829 63.4055 23.5385L63.4019 20.092ZM68.5637 25.2921V20.092H67.5566L67.553 23.4313L66.1173 20.092H65.1065V25.2921H66.1173V21.9385L67.5637 25.2921H68.5637ZM70.554 20.092V20.9027H71.5433V24.4849H70.554V25.2921H73.5612V24.4849H72.5469V20.9027H73.5612V20.092H70.554ZM79.3516 20.9099V20.092H75.1587V20.9099H76.7408V25.2921H77.748V20.9099H79.3516ZM82.5026 22.4885L81.4776 20.092H80.3776L81.9884 23.4492L81.9919 25.2921H82.9919L82.9955 23.4921L84.6313 20.092H83.5277L82.5026 22.4885Z" fill="black"/>
<defs>
<clipPath id="clip0">
<rect width="33.924" height="38.3626" fill="white"/>
</clipPath>
</defs>
</svg>
